<?xml version="1.0" encoding="UTF-8" standalone="no"?>
<!DOCTYPE svg PUBLIC "-//W3C//DTD SVG 1.1//EN"
 "http://www.w3.org/Graphics/SVG/1.1/DTD/svg11.dtd">
<!-- Generated by graphviz version 2.40.1 (20161225.0304)
 -->
<!-- Title: VimwikiGraph Pages: 1 -->
<svg width="1138pt" height="260pt"
 viewBox="0.00 0.00 1138.03 260.00" xmlns="http://www.w3.org/2000/svg" xmlns:xlink="http://www.w3.org/1999/xlink">
<g id="graph0" class="graph" transform="scale(1 1) rotate(0) translate(4 256)">
<title>VimwikiGraph</title>
<polygon fill="#ffffff" stroke="transparent" points="-4,4 -4,-256 1134.0329,-256 1134.0329,4 -4,4"/>
<!-- ./testwiki/test1A -->
<g id="node1" class="node">
<title>./testwiki/test1A</title>
<ellipse fill="none" stroke="#000000" cx="201.8939" cy="-90" rx="68.7879" ry="18"/>
<text text-anchor="middle" x="201.8939" y="-86.3" font-family="Times,serif" font-size="14.00" fill="#000000">./testwiki/test1A</text>
</g>
<!-- ./testwiki/test2A -->
<g id="node2" class="node">
<title>./testwiki/test2A</title>
<ellipse fill="none" stroke="#000000" cx="68.8939" cy="-18" rx="68.7879" ry="18"/>
<text text-anchor="middle" x="68.8939" y="-14.3" font-family="Times,serif" font-size="14.00" fill="#000000">./testwiki/test2A</text>
</g>
<!-- ./testwiki/test1A&#45;&gt;./testwiki/test2A -->
<g id="edge1" class="edge">
<title>./testwiki/test1A&#45;&gt;./testwiki/test2A</title>
<path fill="none" stroke="#000000" d="M171.7141,-73.6621C152.8387,-63.4438 128.3317,-50.1769 107.9783,-39.1585"/>
<polygon fill="#000000" stroke="#000000" points="109.4146,-35.9561 98.9542,-34.2733 106.082,-42.1119 109.4146,-35.9561"/>
</g>
<!-- ./testwiki/test2B -->
<g id="node3" class="node">
<title>./testwiki/test2B</title>
<ellipse fill="none" stroke="#000000" cx="223.8939" cy="-18" rx="68.4888" ry="18"/>
<text text-anchor="middle" x="223.8939" y="-14.3" font-family="Times,serif" font-size="14.00" fill="#000000">./testwiki/test2B</text>
</g>
<!-- ./testwiki/test1A&#45;&gt;./testwiki/test2B -->
<g id="edge2" class="edge">
<title>./testwiki/test1A&#45;&gt;./testwiki/test2B</title>
<path fill="none" stroke="#000000" d="M207.4454,-71.8314C209.8242,-64.0463 212.6577,-54.7729 215.2972,-46.1347"/>
<polygon fill="#000000" stroke="#000000" points="218.6926,-46.9996 218.2676,-36.4133 211.9981,-44.954 218.6926,-46.9996"/>
</g>
<!-- ./testwiki/test_link -->
<g id="node4" class="node">
<title>./testwiki/test_link</title>
<ellipse fill="none" stroke="#000000" cx="352.8939" cy="-162" rx="76.0865" ry="18"/>
<text text-anchor="middle" x="352.8939" y="-158.3" font-family="Times,serif" font-size="14.00" fill="#000000">./testwiki/test_link</text>
</g>
<!-- ./testwiki/test_link&#45;&gt;./testwiki/test1A -->
<g id="edge3" class="edge">
<title>./testwiki/test_link&#45;&gt;./testwiki/test1A</title>
<path fill="none" stroke="#000000" d="M319.0065,-145.8418C296.8988,-135.3004 267.8684,-121.4581 244.2424,-110.1927"/>
<polygon fill="#000000" stroke="#000000" points="245.6811,-107.0012 235.1483,-105.8564 242.6683,-113.3197 245.6811,-107.0012"/>
</g>
<!-- ./testwiki/test1B -->
<g id="node5" class="node">
<title>./testwiki/test1B</title>
<ellipse fill="none" stroke="#000000" cx="356.8939" cy="-90" rx="68.4888" ry="18"/>
<text text-anchor="middle" x="356.8939" y="-86.3" font-family="Times,serif" font-size="14.00" fill="#000000">./testwiki/test1B</text>
</g>
<!-- ./testwiki/test_link&#45;&gt;./testwiki/test1B -->
<g id="edge4" class="edge">
<title>./testwiki/test_link&#45;&gt;./testwiki/test1B</title>
<path fill="none" stroke="#000000" d="M353.9033,-143.8314C354.3311,-136.131 354.8398,-126.9743 355.3152,-118.4166"/>
<polygon fill="#000000" stroke="#000000" points="358.8107,-118.592 355.8709,-108.4133 351.8215,-118.2037 358.8107,-118.592"/>
</g>
<!-- ./testwiki/inbox -->
<g id="node6" class="node">
<title>./testwiki/inbox</title>
<ellipse fill="none" stroke="#000000" cx="550.8939" cy="-162" rx="65.7887" ry="18"/>
<text text-anchor="middle" x="550.8939" y="-158.3" font-family="Times,serif" font-size="14.00" fill="#000000">./testwiki/inbox</text>
</g>
<!-- ./testwiki/hello_world -->
<g id="node7" class="node">
<title>./testwiki/hello_world</title>
<ellipse fill="none" stroke="#000000" cx="572.8939" cy="-90" rx="88.2844" ry="18"/>
<text text-anchor="middle" x="572.8939" y="-86.3" font-family="Times,serif" font-size="14.00" fill="#000000">./testwiki/hello_world</text>
</g>
<!-- ./testwiki/inbox&#45;&gt;./testwiki/hello_world -->
<g id="edge5" class="edge">
<title>./testwiki/inbox&#45;&gt;./testwiki/hello_world</title>
<path fill="none" stroke="#000000" d="M556.4454,-143.8314C558.8242,-136.0463 561.6577,-126.7729 564.2972,-118.1347"/>
<polygon fill="#000000" stroke="#000000" points="567.6926,-118.9996 567.2676,-108.4133 560.9981,-116.954 567.6926,-118.9996"/>
</g>
<!-- ./testwiki/book_backlog -->
<g id="node8" class="node">
<title>./testwiki/book_backlog</title>
<ellipse fill="none" stroke="#000000" cx="729.8939" cy="-162" rx="95.5831" ry="18"/>
<text text-anchor="middle" x="729.8939" y="-158.3" font-family="Times,serif" font-size="14.00" fill="#000000">./testwiki/book_backlog</text>
</g>
<!-- ./testwiki/MEEN2010 -->
<g id="node9" class="node">
<title>./testwiki/MEEN2010</title>
<ellipse fill="none" stroke="#000000" cx="767.8939" cy="-90" rx="89.0842" ry="18"/>
<text text-anchor="middle" x="767.8939" y="-86.3" font-family="Times,serif" font-size="14.00" fill="#000000">./testwiki/MEEN2010</text>
</g>
<!-- ./testwiki/book_backlog&#45;&gt;./testwiki/MEEN2010 -->
<g id="edge6" class="edge">
<title>./testwiki/book_backlog&#45;&gt;./testwiki/MEEN2010</title>
<path fill="none" stroke="#000000" d="M739.4829,-143.8314C743.7909,-135.6688 748.9625,-125.87 753.7058,-116.8827"/>
<polygon fill="#000000" stroke="#000000" points="756.8673,-118.3909 758.4396,-107.9134 750.6766,-115.1236 756.8673,-118.3909"/>
</g>
<!-- ./testwiki/lec_1_notes_meen2010 -->
<g id="node10" class="node">
<title>./testwiki/lec_1_notes_meen2010</title>
<ellipse fill="none" stroke="#000000" cx="473.8939" cy="-18" rx="129.1772" ry="18"/>
<text text-anchor="middle" x="473.8939" y="-14.3" font-family="Times,serif" font-size="14.00" fill="#000000">./testwiki/lec_1_notes_meen2010</text>
</g>
<!-- ./testwiki/MEEN2010&#45;&gt;./testwiki/lec_1_notes_meen2010 -->
<g id="edge8" class="edge">
<title>./testwiki/MEEN2010&#45;&gt;./testwiki/lec_1_notes_meen2010</title>
<path fill="none" stroke="#000000" d="M711.2077,-76.1177C664.6691,-64.7205 598.4126,-48.4944 547.7304,-36.0824"/>
<polygon fill="#000000" stroke="#000000" points="548.3576,-32.6327 537.8121,-33.6534 546.6925,-39.4317 548.3576,-32.6327"/>
</g>
<!-- ./testwiki/lec_2_notes_meen2010 -->
<g id="node12" class="node">
<title>./testwiki/lec_2_notes_meen2010</title>
<ellipse fill="none" stroke="#000000" cx="767.8939" cy="-18" rx="129.1772" ry="18"/>
<text text-anchor="middle" x="767.8939" y="-14.3" font-family="Times,serif" font-size="14.00" fill="#000000">./testwiki/lec_2_notes_meen2010</text>
</g>
<!-- ./testwiki/MEEN2010&#45;&gt;./testwiki/lec_2_notes_meen2010 -->
<g id="edge9" class="edge">
<title>./testwiki/MEEN2010&#45;&gt;./testwiki/lec_2_notes_meen2010</title>
<path fill="none" stroke="#000000" d="M767.8939,-71.8314C767.8939,-64.131 767.8939,-54.9743 767.8939,-46.4166"/>
<polygon fill="#000000" stroke="#000000" points="771.394,-46.4132 767.8939,-36.4133 764.394,-46.4133 771.394,-46.4132"/>
</g>
<!-- ./testwiki/index -->
<g id="node11" class="node">
<title>./testwiki/index</title>
<ellipse fill="none" stroke="#000000" cx="639.8939" cy="-234" rx="65.7887" ry="18"/>
<text text-anchor="middle" x="639.8939" y="-230.3" font-family="Times,serif" font-size="14.00" fill="#000000">./testwiki/index</text>
</g>
<!-- ./testwiki/lec_1_notes_meen2010&#45;&gt;./testwiki/index -->
<g id="edge7" class="edge">
<title>./testwiki/lec_1_notes_meen2010&#45;&gt;./testwiki/index</title>
<path fill="none" stroke="#000000" d="M467.9243,-36.1563C458.5016,-68.5388 444.3,-136.8974 475.8939,-180 488.2543,-196.863 535.8408,-211.3825 576.5927,-221.1054"/>
<polygon fill="#000000" stroke="#000000" points="575.9772,-224.5556 586.5101,-223.4112 577.5625,-217.7374 575.9772,-224.5556"/>
</g>
<!-- ./testwiki/index&#45;&gt;./testwiki/test_link -->
<g id="edge14" class="edge">
<title>./testwiki/index&#45;&gt;./testwiki/test_link</title>
<path fill="none" stroke="#000000" d="M591.2082,-221.7862C542.6796,-209.6118 467.9655,-190.8681 415.1498,-177.6182"/>
<polygon fill="#000000" stroke="#000000" points="415.775,-174.1666 405.2238,-175.1281 414.0716,-180.9563 415.775,-174.1666"/>
</g>
<!-- ./testwiki/index&#45;&gt;./testwiki/inbox -->
<g id="edge12" class="edge">
<title>./testwiki/index&#45;&gt;./testwiki/inbox</title>
<path fill="none" stroke="#000000" d="M618.8021,-216.937C607.2484,-207.5902 592.7517,-195.8625 580.1225,-185.6456"/>
<polygon fill="#000000" stroke="#000000" points="582.1185,-182.7585 572.1427,-179.19 577.7159,-188.2006 582.1185,-182.7585"/>
</g>
<!-- ./testwiki/index&#45;&gt;./testwiki/book_backlog -->
<g id="edge13" class="edge">
<title>./testwiki/index&#45;&gt;./testwiki/book_backlog</title>
<path fill="none" stroke="#000000" d="M661.2226,-216.937C672.7356,-207.7266 687.1384,-196.2044 699.7764,-186.094"/>
<polygon fill="#000000" stroke="#000000" points="702.1561,-188.6725 707.7784,-179.6924 697.7832,-183.2064 702.1561,-188.6725"/>
</g>
<!-- ./testwiki/index&#45;&gt;./testwiki/MEEN2010 -->
<g id="edge10" class="edge">
<title>./testwiki/index&#45;&gt;./testwiki/MEEN2010</title>
<path fill="none" stroke="#000000" d="M698.3181,-225.7007C749.5227,-217.0893 818.3047,-201.8074 834.8939,-180 844.581,-167.2658 841.7987,-158.4334 834.8939,-144 828.9856,-131.6497 818.7217,-121.2218 807.9777,-112.9225"/>
<polygon fill="#000000" stroke="#000000" points="809.8947,-109.9901 799.7322,-106.9944 805.8085,-115.6737 809.8947,-109.9901"/>
</g>
<!-- ./testwiki/vimwiki_cartographer -->
<g id="node13" class="node">
<title>./testwiki/vimwiki_cartographer</title>
<ellipse fill="none" stroke="#000000" cx="1005.8939" cy="-162" rx="124.2781" ry="18"/>
<text text-anchor="middle" x="1005.8939" y="-158.3" font-family="Times,serif" font-size="14.00" fill="#000000">./testwiki/vimwiki_cartographer</text>
</g>
<!-- ./testwiki/index&#45;&gt;./testwiki/vimwiki_cartographer -->
<g id="edge11" class="edge">
<title>./testwiki/index&#45;&gt;./testwiki/vimwiki_cartographer</title>
<path fill="none" stroke="#000000" d="M693.5054,-223.4535C753.5915,-211.6333 851.7794,-192.3176 922.0387,-178.4961"/>
<polygon fill="#000000" stroke="#000000" points="923.0579,-181.8628 932.1943,-176.4983 921.7067,-174.9944 923.0579,-181.8628"/>
</g>
</g>
</svg>
