<?xml version="1.0" encoding="UTF-8" standalone="no"?>
<!DOCTYPE svg PUBLIC "-//W3C//DTD SVG 1.1//EN"
 "http://www.w3.org/Graphics/SVG/1.1/DTD/svg11.dtd">
<!-- Generated by graphviz version 2.40.1 (20161225.0304)
 -->
<!-- Title: VimwikiGraph Pages: 1 -->
<svg width="963pt" height="476pt"
 viewBox="0.00 0.00 962.58 476.00" xmlns="http://www.w3.org/2000/svg" xmlns:xlink="http://www.w3.org/1999/xlink">
<g id="graph0" class="graph" transform="scale(1 1) rotate(0) translate(4 472)">
<title>VimwikiGraph</title>
<polygon fill="#ffffff" stroke="transparent" points="-4,4 -4,-472 958.5825,-472 958.5825,4 -4,4"/>
<!-- ./testwiki/book_backlog -->
<g id="node1" class="node">
<title>./testwiki/book_backlog</title>
<ellipse fill="none" stroke="#000000" cx="503.3385" cy="-450" rx="95.5831" ry="18"/>
<text text-anchor="middle" x="503.3385" y="-446.3" font-family="Times,serif" font-size="14.00" fill="#000000">./testwiki/book_backlog</text>
</g>
<!-- ./testwiki/MEEN2010 -->
<g id="node2" class="node">
<title>./testwiki/MEEN2010</title>
<ellipse fill="none" stroke="#000000" cx="445.3385" cy="-378" rx="89.0842" ry="18"/>
<text text-anchor="middle" x="445.3385" y="-374.3" font-family="Times,serif" font-size="14.00" fill="#000000">./testwiki/MEEN2010</text>
</g>
<!-- ./testwiki/book_backlog&#45;&gt;./testwiki/MEEN2010 -->
<g id="edge1" class="edge">
<title>./testwiki/book_backlog&#45;&gt;./testwiki/MEEN2010</title>
<path fill="none" stroke="#000000" d="M489.0014,-432.2022C482.0999,-423.6348 473.6948,-413.2009 466.1089,-403.7839"/>
<polygon fill="#000000" stroke="#000000" points="468.7107,-401.4344 459.7117,-395.8425 463.2594,-405.8258 468.7107,-401.4344"/>
</g>
<!-- ./testwiki/lec_1_notes_meen2010 -->
<g id="node7" class="node">
<title>./testwiki/lec_1_notes_meen2010</title>
<ellipse fill="none" stroke="#000000" cx="129.3385" cy="-306" rx="129.1772" ry="18"/>
<text text-anchor="middle" x="129.3385" y="-302.3" font-family="Times,serif" font-size="14.00" fill="#000000">./testwiki/lec_1_notes_meen2010</text>
</g>
<!-- ./testwiki/MEEN2010&#45;&gt;./testwiki/lec_1_notes_meen2010 -->
<g id="edge10" class="edge">
<title>./testwiki/MEEN2010&#45;&gt;./testwiki/lec_1_notes_meen2010</title>
<path fill="none" stroke="#000000" d="M385.9013,-364.4574C335.3246,-352.9335 262.3133,-336.2981 207.0989,-323.7176"/>
<polygon fill="#000000" stroke="#000000" points="207.5334,-320.2269 197.0057,-321.4178 205.9783,-327.052 207.5334,-320.2269"/>
</g>
<!-- ./testwiki/lec_2_notes_meen2010 -->
<g id="node10" class="node">
<title>./testwiki/lec_2_notes_meen2010</title>
<ellipse fill="none" stroke="#000000" cx="406.3385" cy="-306" rx="129.1772" ry="18"/>
<text text-anchor="middle" x="406.3385" y="-302.3" font-family="Times,serif" font-size="14.00" fill="#000000">./testwiki/lec_2_notes_meen2010</text>
</g>
<!-- ./testwiki/MEEN2010&#45;&gt;./testwiki/lec_2_notes_meen2010 -->
<g id="edge11" class="edge">
<title>./testwiki/MEEN2010&#45;&gt;./testwiki/lec_2_notes_meen2010</title>
<path fill="none" stroke="#000000" d="M435.4972,-359.8314C431.1428,-351.7925 425.9287,-342.1666 421.1216,-333.2918"/>
<polygon fill="#000000" stroke="#000000" points="424.1528,-331.5392 416.3124,-324.4133 417.9977,-334.8732 424.1528,-331.5392"/>
</g>
<!-- ./testwiki/index -->
<g id="node3" class="node">
<title>./testwiki/index</title>
<ellipse fill="none" stroke="#000000" cx="563.3385" cy="-234" rx="65.7887" ry="18"/>
<text text-anchor="middle" x="563.3385" y="-230.3" font-family="Times,serif" font-size="14.00" fill="#000000">./testwiki/index</text>
</g>
<!-- ./testwiki/index&#45;&gt;./testwiki/book_backlog -->
<g id="edge5" class="edge">
<title>./testwiki/index&#45;&gt;./testwiki/book_backlog</title>
<path fill="none" stroke="#000000" d="M564.6197,-252.4838C565.2784,-262.9076 566.0103,-276.1738 566.3385,-288 566.7825,-303.9938 568.8023,-308.1908 566.3385,-324 561.1657,-357.1924 558.6533,-366.101 543.3385,-396 538.392,-405.6571 531.7605,-415.4242 525.3211,-423.947"/>
<polygon fill="#000000" stroke="#000000" points="522.4219,-421.9726 519.0152,-432.0048 527.9345,-426.2867 522.4219,-421.9726"/>
</g>
<!-- ./testwiki/index&#45;&gt;./testwiki/MEEN2010 -->
<g id="edge2" class="edge">
<title>./testwiki/index&#45;&gt;./testwiki/MEEN2010</title>
<path fill="none" stroke="#000000" d="M563.806,-252.0186C563.415,-271.5839 560.0691,-302.8613 544.3385,-324 533.4444,-338.6394 517.3596,-349.7771 501.308,-358.0222"/>
<polygon fill="#000000" stroke="#000000" points="499.395,-355.0584 491.9004,-362.5471 502.4292,-361.3667 499.395,-355.0584"/>
</g>
<!-- ./testwiki/vimwiki_cartographer -->
<g id="node4" class="node">
<title>./testwiki/vimwiki_cartographer</title>
<ellipse fill="none" stroke="#000000" cx="355.3385" cy="-162" rx="124.2781" ry="18"/>
<text text-anchor="middle" x="355.3385" y="-158.3" font-family="Times,serif" font-size="14.00" fill="#000000">./testwiki/vimwiki_cartographer</text>
</g>
<!-- ./testwiki/index&#45;&gt;./testwiki/vimwiki_cartographer -->
<g id="edge3" class="edge">
<title>./testwiki/index&#45;&gt;./testwiki/vimwiki_cartographer</title>
<path fill="none" stroke="#000000" d="M522.2444,-219.7751C491.0773,-208.9865 447.8366,-194.0186 413.1772,-182.0211"/>
<polygon fill="#000000" stroke="#000000" points="414.241,-178.6856 403.6462,-178.7219 411.9511,-185.3005 414.241,-178.6856"/>
</g>
<!-- ./testwiki/inbox -->
<g id="node5" class="node">
<title>./testwiki/inbox</title>
<ellipse fill="none" stroke="#000000" cx="563.3385" cy="-162" rx="65.7887" ry="18"/>
<text text-anchor="middle" x="563.3385" y="-158.3" font-family="Times,serif" font-size="14.00" fill="#000000">./testwiki/inbox</text>
</g>
<!-- ./testwiki/index&#45;&gt;./testwiki/inbox -->
<g id="edge4" class="edge">
<title>./testwiki/index&#45;&gt;./testwiki/inbox</title>
<path fill="none" stroke="#000000" d="M563.3385,-215.8314C563.3385,-208.131 563.3385,-198.9743 563.3385,-190.4166"/>
<polygon fill="#000000" stroke="#000000" points="566.8386,-190.4132 563.3385,-180.4133 559.8386,-190.4133 566.8386,-190.4132"/>
</g>
<!-- ./testwiki/test_link -->
<g id="node6" class="node">
<title>./testwiki/test_link</title>
<ellipse fill="none" stroke="#000000" cx="731.3385" cy="-162" rx="76.0865" ry="18"/>
<text text-anchor="middle" x="731.3385" y="-158.3" font-family="Times,serif" font-size="14.00" fill="#000000">./testwiki/test_link</text>
</g>
<!-- ./testwiki/index&#45;&gt;./testwiki/test_link -->
<g id="edge6" class="edge">
<title>./testwiki/index&#45;&gt;./testwiki/test_link</title>
<path fill="none" stroke="#000000" d="M598.967,-218.7307C624.0394,-207.9853 657.8336,-193.5021 685.0002,-181.8593"/>
<polygon fill="#000000" stroke="#000000" points="686.495,-185.0266 694.3078,-177.8703 683.7376,-178.5926 686.495,-185.0266"/>
</g>
<!-- ./testwiki/hello_world -->
<g id="node13" class="node">
<title>./testwiki/hello_world</title>
<ellipse fill="none" stroke="#000000" cx="556.3385" cy="-90" rx="88.2844" ry="18"/>
<text text-anchor="middle" x="556.3385" y="-86.3" font-family="Times,serif" font-size="14.00" fill="#000000">./testwiki/hello_world</text>
</g>
<!-- ./testwiki/inbox&#45;&gt;./testwiki/hello_world -->
<g id="edge14" class="edge">
<title>./testwiki/inbox&#45;&gt;./testwiki/hello_world</title>
<path fill="none" stroke="#000000" d="M561.5721,-143.8314C560.8235,-136.131 559.9333,-126.9743 559.1013,-118.4166"/>
<polygon fill="#000000" stroke="#000000" points="562.58,-118.0276 558.1287,-108.4133 555.6129,-118.7051 562.58,-118.0276"/>
</g>
<!-- ./testwiki/test1A -->
<g id="node8" class="node">
<title>./testwiki/test1A</title>
<ellipse fill="none" stroke="#000000" cx="731.3385" cy="-90" rx="68.7879" ry="18"/>
<text text-anchor="middle" x="731.3385" y="-86.3" font-family="Times,serif" font-size="14.00" fill="#000000">./testwiki/test1A</text>
</g>
<!-- ./testwiki/test_link&#45;&gt;./testwiki/test1A -->
<g id="edge8" class="edge">
<title>./testwiki/test_link&#45;&gt;./testwiki/test1A</title>
<path fill="none" stroke="#000000" d="M731.3385,-143.8314C731.3385,-136.131 731.3385,-126.9743 731.3385,-118.4166"/>
<polygon fill="#000000" stroke="#000000" points="734.8386,-118.4132 731.3385,-108.4133 727.8386,-118.4133 734.8386,-118.4132"/>
</g>
<!-- ./testwiki/test1B -->
<g id="node9" class="node">
<title>./testwiki/test1B</title>
<ellipse fill="none" stroke="#000000" cx="886.3385" cy="-90" rx="68.4888" ry="18"/>
<text text-anchor="middle" x="886.3385" y="-86.3" font-family="Times,serif" font-size="14.00" fill="#000000">./testwiki/test1B</text>
</g>
<!-- ./testwiki/test_link&#45;&gt;./testwiki/test1B -->
<g id="edge9" class="edge">
<title>./testwiki/test_link&#45;&gt;./testwiki/test1B</title>
<path fill="none" stroke="#000000" d="M766.1235,-145.8418C788.8957,-135.2638 818.8233,-121.3619 843.1207,-110.0754"/>
<polygon fill="#000000" stroke="#000000" points="844.8743,-113.1201 852.469,-105.7329 841.9252,-106.7716 844.8743,-113.1201"/>
</g>
<!-- ./testwiki/lec_1_notes_meen2010&#45;&gt;./testwiki/index -->
<g id="edge7" class="edge">
<title>./testwiki/lec_1_notes_meen2010&#45;&gt;./testwiki/index</title>
<path fill="none" stroke="#000000" d="M212.5046,-292.2029C295.3023,-278.4668 420.7481,-257.6556 497.0582,-244.9958"/>
<polygon fill="#000000" stroke="#000000" points="497.7389,-248.4308 507.0312,-243.3413 496.5932,-241.5252 497.7389,-248.4308"/>
</g>
<!-- ./testwiki/test2A -->
<g id="node11" class="node">
<title>./testwiki/test2A</title>
<ellipse fill="none" stroke="#000000" cx="654.3385" cy="-18" rx="68.7879" ry="18"/>
<text text-anchor="middle" x="654.3385" y="-14.3" font-family="Times,serif" font-size="14.00" fill="#000000">./testwiki/test2A</text>
</g>
<!-- ./testwiki/test1A&#45;&gt;./testwiki/test2A -->
<g id="edge12" class="edge">
<title>./testwiki/test1A&#45;&gt;./testwiki/test2A</title>
<path fill="none" stroke="#000000" d="M712.699,-72.5708C703.0288,-63.5286 691.0567,-52.3338 680.4775,-42.4417"/>
<polygon fill="#000000" stroke="#000000" points="682.7681,-39.7917 673.0733,-35.5182 677.9871,-44.9047 682.7681,-39.7917"/>
</g>
<!-- ./testwiki/test2B -->
<g id="node12" class="node">
<title>./testwiki/test2B</title>
<ellipse fill="none" stroke="#000000" cx="809.3385" cy="-18" rx="68.4888" ry="18"/>
<text text-anchor="middle" x="809.3385" y="-14.3" font-family="Times,serif" font-size="14.00" fill="#000000">./testwiki/test2B</text>
</g>
<!-- ./testwiki/test1A&#45;&gt;./testwiki/test2B -->
<g id="edge13" class="edge">
<title>./testwiki/test1A&#45;&gt;./testwiki/test2B</title>
<path fill="none" stroke="#000000" d="M750.2201,-72.5708C760.0159,-63.5286 772.1435,-52.3338 782.8601,-42.4417"/>
<polygon fill="#000000" stroke="#000000" points="785.3864,-44.8729 790.3604,-35.5182 780.6384,-39.7292 785.3864,-44.8729"/>
</g>
</g>
</svg>
