<?xml version="1.0" encoding="UTF-8" standalone="no"?>
<!DOCTYPE svg PUBLIC "-//W3C//DTD SVG 1.1//EN"
 "http://www.w3.org/Graphics/SVG/1.1/DTD/svg11.dtd">
<!-- Generated by graphviz version 2.40.1 (20161225.0304)
 -->
<!-- Title: VimwikiGraph Pages: 1 -->
<svg width="1165pt" height="260pt"
 viewBox="0.00 0.00 1164.64 260.00" xmlns="http://www.w3.org/2000/svg" xmlns:xlink="http://www.w3.org/1999/xlink">
<g id="graph0" class="graph" transform="scale(1 1) rotate(0) translate(4 256)">
<title>VimwikiGraph</title>
<polygon fill="#ffffff" stroke="transparent" points="-4,4 -4,-256 1160.6361,-256 1160.6361,4 -4,4"/>
<!-- ./testwiki/inbox -->
<g id="node1" class="node">
<title>./testwiki/inbox</title>
<ellipse fill="none" stroke="#000000" cx="88.3922" cy="-162" rx="65.7887" ry="18"/>
<text text-anchor="middle" x="88.3922" y="-158.3" font-family="Times,serif" font-size="14.00" fill="#000000">./testwiki/inbox</text>
</g>
<!-- ./testwiki/hello_world -->
<g id="node2" class="node">
<title>./testwiki/hello_world</title>
<ellipse fill="none" stroke="#000000" cx="88.3922" cy="-90" rx="88.2844" ry="18"/>
<text text-anchor="middle" x="88.3922" y="-86.3" font-family="Times,serif" font-size="14.00" fill="#000000">./testwiki/hello_world</text>
</g>
<!-- ./testwiki/inbox&#45;&gt;./testwiki/hello_world -->
<g id="edge1" class="edge">
<title>./testwiki/inbox&#45;&gt;./testwiki/hello_world</title>
<path fill="none" stroke="#000000" d="M88.3922,-143.8314C88.3922,-136.131 88.3922,-126.9743 88.3922,-118.4166"/>
<polygon fill="#000000" stroke="#000000" points="91.8923,-118.4132 88.3922,-108.4133 84.8923,-118.4133 91.8923,-118.4132"/>
</g>
<!-- ./testwiki/test1A -->
<g id="node3" class="node">
<title>./testwiki/test1A</title>
<ellipse fill="none" stroke="#000000" cx="951.3922" cy="-90" rx="68.7879" ry="18"/>
<text text-anchor="middle" x="951.3922" y="-86.3" font-family="Times,serif" font-size="14.00" fill="#000000">./testwiki/test1A</text>
</g>
<!-- ./testwiki/test2A -->
<g id="node4" class="node">
<title>./testwiki/test2A</title>
<ellipse fill="none" stroke="#000000" cx="933.3922" cy="-18" rx="68.7879" ry="18"/>
<text text-anchor="middle" x="933.3922" y="-14.3" font-family="Times,serif" font-size="14.00" fill="#000000">./testwiki/test2A</text>
</g>
<!-- ./testwiki/test1A&#45;&gt;./testwiki/test2A -->
<g id="edge2" class="edge">
<title>./testwiki/test1A&#45;&gt;./testwiki/test2A</title>
<path fill="none" stroke="#000000" d="M946.85,-71.8314C944.9037,-64.0463 942.5854,-54.7729 940.4258,-46.1347"/>
<polygon fill="#000000" stroke="#000000" points="943.8164,-45.2658 937.9955,-36.4133 937.0254,-46.9636 943.8164,-45.2658"/>
</g>
<!-- ./testwiki/test2B -->
<g id="node5" class="node">
<title>./testwiki/test2B</title>
<ellipse fill="none" stroke="#000000" cx="1088.3922" cy="-18" rx="68.4888" ry="18"/>
<text text-anchor="middle" x="1088.3922" y="-14.3" font-family="Times,serif" font-size="14.00" fill="#000000">./testwiki/test2B</text>
</g>
<!-- ./testwiki/test1A&#45;&gt;./testwiki/test2B -->
<g id="edge3" class="edge">
<title>./testwiki/test1A&#45;&gt;./testwiki/test2B</title>
<path fill="none" stroke="#000000" d="M982.1376,-73.8418C1001.792,-63.5125 1027.4768,-50.0139 1048.6699,-38.8759"/>
<polygon fill="#000000" stroke="#000000" points="1050.5256,-41.8547 1057.7493,-34.1043 1047.269,-35.6583 1050.5256,-41.8547"/>
</g>
<!-- ./testwiki/index -->
<g id="node6" class="node">
<title>./testwiki/index</title>
<ellipse fill="none" stroke="#000000" cx="453.3922" cy="-234" rx="65.7887" ry="18"/>
<text text-anchor="middle" x="453.3922" y="-230.3" font-family="Times,serif" font-size="14.00" fill="#000000">./testwiki/index</text>
</g>
<!-- ./testwiki/index&#45;&gt;./testwiki/inbox -->
<g id="edge6" class="edge">
<title>./testwiki/index&#45;&gt;./testwiki/inbox</title>
<path fill="none" stroke="#000000" d="M398.3802,-224.1508C340.9004,-213.7254 248.1549,-196.5248 168.3922,-180 161.9296,-178.6611 155.1842,-177.2169 148.4702,-175.7493"/>
<polygon fill="#000000" stroke="#000000" points="149.2119,-172.3289 138.6926,-173.5921 147.7037,-179.1645 149.2119,-172.3289"/>
</g>
<!-- ./testwiki/MEEN2010 -->
<g id="node7" class="node">
<title>./testwiki/MEEN2010</title>
<ellipse fill="none" stroke="#000000" cx="496.3922" cy="-90" rx="89.0842" ry="18"/>
<text text-anchor="middle" x="496.3922" y="-86.3" font-family="Times,serif" font-size="14.00" fill="#000000">./testwiki/MEEN2010</text>
</g>
<!-- ./testwiki/index&#45;&gt;./testwiki/MEEN2010 -->
<g id="edge4" class="edge">
<title>./testwiki/index&#45;&gt;./testwiki/MEEN2010</title>
<path fill="none" stroke="#000000" d="M389.906,-229.3209C323.171,-222.9265 224.6689,-208.7931 201.3922,-180 191.3333,-167.5573 191.1475,-156.2901 201.3922,-144 226.3578,-114.0495 323.0878,-100.6608 399.0636,-94.7064"/>
<polygon fill="#000000" stroke="#000000" points="399.4531,-98.1871 409.1631,-93.9485 398.9292,-91.2067 399.4531,-98.1871"/>
</g>
<!-- ./testwiki/vimwiki_cartographer -->
<g id="node8" class="node">
<title>./testwiki/vimwiki_cartographer</title>
<ellipse fill="none" stroke="#000000" cx="334.3922" cy="-162" rx="124.2781" ry="18"/>
<text text-anchor="middle" x="334.3922" y="-158.3" font-family="Times,serif" font-size="14.00" fill="#000000">./testwiki/vimwiki_cartographer</text>
</g>
<!-- ./testwiki/index&#45;&gt;./testwiki/vimwiki_cartographer -->
<g id="edge5" class="edge">
<title>./testwiki/index&#45;&gt;./testwiki/vimwiki_cartographer</title>
<path fill="none" stroke="#000000" d="M426.0912,-217.4817C410.1973,-207.8653 389.9169,-195.5948 372.4717,-185.0398"/>
<polygon fill="#000000" stroke="#000000" points="374.0134,-181.8818 363.6457,-179.6996 370.3897,-187.8709 374.0134,-181.8818"/>
</g>
<!-- ./testwiki/book_backlog -->
<g id="node9" class="node">
<title>./testwiki/book_backlog</title>
<ellipse fill="none" stroke="#000000" cx="572.3922" cy="-162" rx="95.5831" ry="18"/>
<text text-anchor="middle" x="572.3922" y="-158.3" font-family="Times,serif" font-size="14.00" fill="#000000">./testwiki/book_backlog</text>
</g>
<!-- ./testwiki/index&#45;&gt;./testwiki/book_backlog -->
<g id="edge7" class="edge">
<title>./testwiki/index&#45;&gt;./testwiki/book_backlog</title>
<path fill="none" stroke="#000000" d="M480.6932,-217.4817C496.8207,-207.7239 517.4648,-195.2334 535.0803,-184.5752"/>
<polygon fill="#000000" stroke="#000000" points="537.2321,-187.3641 543.9761,-179.1929 533.6084,-181.375 537.2321,-187.3641"/>
</g>
<!-- ./testwiki/test_link -->
<g id="node10" class="node">
<title>./testwiki/test_link</title>
<ellipse fill="none" stroke="#000000" cx="800.3922" cy="-162" rx="76.0865" ry="18"/>
<text text-anchor="middle" x="800.3922" y="-158.3" font-family="Times,serif" font-size="14.00" fill="#000000">./testwiki/test_link</text>
</g>
<!-- ./testwiki/index&#45;&gt;./testwiki/test_link -->
<g id="edge8" class="edge">
<title>./testwiki/index&#45;&gt;./testwiki/test_link</title>
<path fill="none" stroke="#000000" d="M506.094,-223.0647C566.8674,-210.4547 666.8968,-189.6993 733.2081,-175.9402"/>
<polygon fill="#000000" stroke="#000000" points="734.0635,-179.3374 743.1438,-173.8786 732.6413,-172.4833 734.0635,-179.3374"/>
</g>
<!-- ./testwiki/lec_1_notes_meen2010 -->
<g id="node11" class="node">
<title>./testwiki/lec_1_notes_meen2010</title>
<ellipse fill="none" stroke="#000000" cx="696.3922" cy="-18" rx="129.1772" ry="18"/>
<text text-anchor="middle" x="696.3922" y="-14.3" font-family="Times,serif" font-size="14.00" fill="#000000">./testwiki/lec_1_notes_meen2010</text>
</g>
<!-- ./testwiki/MEEN2010&#45;&gt;./testwiki/lec_1_notes_meen2010 -->
<g id="edge10" class="edge">
<title>./testwiki/MEEN2010&#45;&gt;./testwiki/lec_1_notes_meen2010</title>
<path fill="none" stroke="#000000" d="M540.283,-74.1993C569.5651,-63.6577 608.3375,-49.6997 639.9158,-38.3315"/>
<polygon fill="#000000" stroke="#000000" points="641.2432,-41.5736 649.4665,-34.8932 638.8721,-34.9874 641.2432,-41.5736"/>
</g>
<!-- ./testwiki/lec_2_notes_meen2010 -->
<g id="node12" class="node">
<title>./testwiki/lec_2_notes_meen2010</title>
<ellipse fill="none" stroke="#000000" cx="419.3922" cy="-18" rx="129.1772" ry="18"/>
<text text-anchor="middle" x="419.3922" y="-14.3" font-family="Times,serif" font-size="14.00" fill="#000000">./testwiki/lec_2_notes_meen2010</text>
</g>
<!-- ./testwiki/MEEN2010&#45;&gt;./testwiki/lec_2_notes_meen2010 -->
<g id="edge11" class="edge">
<title>./testwiki/MEEN2010&#45;&gt;./testwiki/lec_2_notes_meen2010</title>
<path fill="none" stroke="#000000" d="M477.3584,-72.2022C467.9184,-63.3752 456.3595,-52.5669 446.0541,-42.9307"/>
<polygon fill="#000000" stroke="#000000" points="448.1685,-40.116 438.4738,-35.8425 443.3875,-45.229 448.1685,-40.116"/>
</g>
<!-- ./testwiki/book_backlog&#45;&gt;./testwiki/MEEN2010 -->
<g id="edge9" class="edge">
<title>./testwiki/book_backlog&#45;&gt;./testwiki/MEEN2010</title>
<path fill="none" stroke="#000000" d="M553.6056,-144.2022C544.2882,-135.3752 532.8794,-124.5669 522.7079,-114.9307"/>
<polygon fill="#000000" stroke="#000000" points="524.8926,-112.1792 515.226,-107.8425 520.0784,-117.2609 524.8926,-112.1792"/>
</g>
<!-- ./testwiki/test_link&#45;&gt;./testwiki/test1A -->
<g id="edge13" class="edge">
<title>./testwiki/test_link&#45;&gt;./testwiki/test1A</title>
<path fill="none" stroke="#000000" d="M834.2795,-145.8418C856.3872,-135.3004 885.4176,-121.4581 909.0437,-110.1927"/>
<polygon fill="#000000" stroke="#000000" points="910.6178,-113.3197 918.1378,-105.8564 907.605,-107.0012 910.6178,-113.3197"/>
</g>
<!-- ./testwiki/test1B -->
<g id="node13" class="node">
<title>./testwiki/test1B</title>
<ellipse fill="none" stroke="#000000" cx="796.3922" cy="-90" rx="68.4888" ry="18"/>
<text text-anchor="middle" x="796.3922" y="-86.3" font-family="Times,serif" font-size="14.00" fill="#000000">./testwiki/test1B</text>
</g>
<!-- ./testwiki/test_link&#45;&gt;./testwiki/test1B -->
<g id="edge14" class="edge">
<title>./testwiki/test_link&#45;&gt;./testwiki/test1B</title>
<path fill="none" stroke="#000000" d="M799.3828,-143.8314C798.955,-136.131 798.4463,-126.9743 797.9709,-118.4166"/>
<polygon fill="#000000" stroke="#000000" points="801.4645,-118.2037 797.4151,-108.4133 794.4753,-118.592 801.4645,-118.2037"/>
</g>
<!-- ./testwiki/lec_1_notes_meen2010&#45;&gt;./testwiki/index -->
<g id="edge12" class="edge">
<title>./testwiki/lec_1_notes_meen2010&#45;&gt;./testwiki/index</title>
<path fill="none" stroke="#000000" d="M700.2802,-36.2017C706.1925,-69.2724 713.2791,-139.5337 677.3922,-180 657.2359,-202.7283 582.1514,-217.4951 524.4096,-225.7473"/>
<polygon fill="#000000" stroke="#000000" points="523.6355,-222.3212 514.2121,-227.1636 524.5986,-229.2546 523.6355,-222.3212"/>
</g>
</g>
</svg>
